<svg width="303" height="21" viewBox="0 0 303 21" fill="none" xmlns="http://www.w3.org/2000/svg">
<path d="M7.59073 17.48C6.10273 17.48 4.79073 17.12 3.65473 16.4C2.53473 15.68 1.67073 14.704 1.06273 13.472C0.454727 12.224 0.150727 10.84 0.150727 9.32C0.150727 7.752 0.478727 6.304 1.13473 4.976C1.80673 3.648 2.71073 2.6 3.84673 1.832C4.99873 1.064 6.24673 0.68 7.59073 0.68C8.87073 0.68 9.99073 0.864 10.9507 1.232C11.9267 1.584 12.6467 2.04 13.1107 2.6C13.3827 2.936 13.5507 3.384 13.6147 3.944C13.6787 4.488 13.7107 5.24 13.7107 6.2H13.2307C12.9267 4.648 12.3667 3.504 11.5507 2.768C10.7347 2.016 9.65473 1.64 8.31073 1.64C6.58273 1.64 5.19073 2.248 4.13473 3.464C3.07873 4.68 2.55073 6.632 2.55073 9.32C2.55073 10.584 2.75073 11.76 3.15073 12.848C3.56673 13.936 4.20673 14.824 5.07073 15.512C5.93473 16.184 7.01473 16.52 8.31073 16.52C9.47873 16.52 10.4947 16.24 11.3587 15.68C12.2387 15.12 13.0227 14.28 13.7107 13.16L14.1907 13.52C13.4547 14.96 12.5427 15.984 11.4547 16.592C10.3827 17.184 9.09473 17.48 7.59073 17.48ZM29.5037 17.12C28.7357 17.12 27.9757 16.912 27.2237 16.496C26.4717 16.064 25.8717 15.232 25.4237 14L24.8237 12.44H18.1037L16.1837 17H15.1037L21.8237 1.16H22.5437L27.8237 14C28.2237 14.928 28.5997 15.568 28.9517 15.92C29.3037 16.256 29.8077 16.456 30.4637 16.52V17C30.1757 17.08 29.8557 17.12 29.5037 17.12ZM24.3437 11.48L21.4637 4.52L18.4637 11.48H24.3437ZM36.098 17.408C35.218 17.408 34.354 17.288 33.506 17.048C32.658 16.808 31.962 16.464 31.418 16.016C30.89 15.568 30.626 15.056 30.626 14.48V11.912H31.058C31.33 13.512 31.858 14.672 32.642 15.392C33.426 16.096 34.506 16.448 35.882 16.448C36.746 16.448 37.482 16.232 38.09 15.8C38.714 15.368 39.026 14.768 39.026 14C39.026 13.328 38.818 12.744 38.402 12.248C37.986 11.752 37.314 11.232 36.386 10.688L33.434 8.936C32.41 8.328 31.682 7.712 31.25 7.088C30.834 6.464 30.626 5.704 30.626 4.808C30.626 3.576 31.05 2.592 31.898 1.856C32.762 1.104 33.89 0.727999 35.282 0.727999C36.098 0.727999 36.906 0.847999 37.706 1.088C38.506 1.312 39.162 1.648 39.674 2.096C40.202 2.528 40.466 3.032 40.466 3.608V6.176H40.034C39.762 4.576 39.242 3.432 38.474 2.744C37.722 2.04 36.658 1.688 35.282 1.688C34.546 1.688 33.898 1.912 33.338 2.36C32.778 2.808 32.498 3.392 32.498 4.112C32.498 4.768 32.698 5.312 33.098 5.744C33.514 6.176 34.202 6.68 35.162 7.256L38.114 9.008C39.202 9.664 39.97 10.272 40.418 10.832C40.866 11.392 41.09 12.104 41.09 12.968C41.09 14.312 40.642 15.392 39.746 16.208C38.85 17.008 37.634 17.408 36.098 17.408ZM56.5749 17.12C55.8069 17.12 55.0469 16.912 54.2949 16.496C53.5429 16.064 52.9429 15.232 52.4949 14L51.8949 12.44H45.1749L43.2549 17H42.1749L48.8949 1.16H49.6149L54.8949 14C55.2949 14.928 55.6709 15.568 56.0229 15.92C56.3749 16.256 56.8789 16.456 57.5349 16.52V17C57.2469 17.08 56.9269 17.12 56.5749 17.12ZM51.4149 11.48L48.5349 4.52L45.5349 11.48H51.4149ZM76.5853 18.08C75.4333 18.08 74.5373 17.904 73.8973 17.552C73.2573 17.2 72.8013 16.656 72.5293 15.92C72.2733 15.168 72.1453 14.168 72.1453 12.92V3.68L66.1453 17H65.6653L59.4253 3.44V17H58.4653V1.16H60.7453L66.5053 13.64L72.1453 1.16H74.3053V12.92C74.3053 14.408 74.4893 15.56 74.8573 16.376C75.2413 17.192 75.8173 17.6 76.5853 17.6V18.08ZM78.8559 4.04C78.8559 3.224 78.7439 2.624 78.5199 2.24C78.2959 1.84 77.8479 1.64 77.1759 1.64H76.6959V1.16H86.9199C88.2799 1.16 88.9599 1.8 88.9599 3.08V4.88H88.4799C88.4799 3.04 87.4799 2.12 85.4799 2.12H81.0159V8.36H87.4959V9.32H81.0159V16.04H85.2159C86.3199 16.04 87.1839 15.84 87.8079 15.44C88.4319 15.04 88.9279 14.36 89.2959 13.4L89.7759 13.52L88.9359 15.8C88.6479 16.6 88.0479 17 87.1359 17H78.8559V4.04ZM93.5882 17H92.6282V4.04C92.6282 3.272 92.4602 2.68 92.1242 2.264C91.8042 1.848 91.2522 1.64 90.4682 1.64H90.2282V1.16H91.7882C92.5242 1.16 93.1482 1.28 93.6602 1.52C94.1722 1.76 94.6282 2.12 95.0282 2.6L103.428 13.04V1.16H104.388V17.24H103.908L93.5882 4.4V17ZM109.922 2.12C107.922 2.12 106.922 3.04 106.922 4.88H106.442V3.08C106.442 1.8 107.122 1.16 108.482 1.16H119.642V2.12H114.242V17H112.082V2.12H109.922ZM127.01 17.48C125.522 17.48 124.21 17.112 123.074 16.376C121.954 15.64 121.09 14.632 120.482 13.352C119.874 12.072 119.57 10.648 119.57 9.08C119.57 7.512 119.874 6.088 120.482 4.808C121.09 3.528 121.954 2.52 123.074 1.784C124.21 1.048 125.522 0.68 127.01 0.68C128.498 0.68 129.802 1.048 130.922 1.784C132.058 2.52 132.93 3.528 133.538 4.808C134.146 6.088 134.45 7.512 134.45 9.08C134.45 10.648 134.146 12.072 133.538 13.352C132.93 14.632 132.058 15.64 130.922 16.376C129.802 17.112 128.498 17.48 127.01 17.48ZM127.01 16.52C128.05 16.52 128.946 16.216 129.698 15.608C130.466 15 131.05 14.144 131.45 13.04C131.85 11.92 132.05 10.6 132.05 9.08C132.05 7.56 131.85 6.248 131.45 5.144C131.05 4.024 130.466 3.16 129.698 2.552C128.946 1.944 128.05 1.64 127.01 1.64C125.97 1.64 125.066 1.944 124.298 2.552C123.546 3.16 122.97 4.024 122.57 5.144C122.17 6.248 121.97 7.56 121.97 9.08C121.97 10.6 122.17 11.92 122.57 13.04C122.97 14.144 123.546 15 124.298 15.608C125.066 16.216 125.97 16.52 127.01 16.52ZM147.36 17.408C146.48 17.408 145.616 17.288 144.768 17.048C143.92 16.808 143.224 16.464 142.68 16.016C142.152 15.568 141.888 15.056 141.888 14.48V11.912H142.32C142.592 13.512 143.12 14.672 143.904 15.392C144.688 16.096 145.768 16.448 147.144 16.448C148.008 16.448 148.744 16.232 149.352 15.8C149.976 15.368 150.288 14.768 150.288 14C150.288 13.328 150.08 12.744 149.664 12.248C149.248 11.752 148.576 11.232 147.648 10.688L144.696 8.936C143.672 8.328 142.944 7.712 142.512 7.088C142.096 6.464 141.888 5.704 141.888 4.808C141.888 3.576 142.312 2.592 143.16 1.856C144.024 1.104 145.152 0.727999 146.544 0.727999C147.36 0.727999 148.168 0.847999 148.968 1.088C149.768 1.312 150.424 1.648 150.936 2.096C151.464 2.528 151.728 3.032 151.728 3.608V6.176H151.296C151.024 4.576 150.504 3.432 149.736 2.744C148.984 2.04 147.92 1.688 146.544 1.688C145.808 1.688 145.16 1.912 144.6 2.36C144.04 2.808 143.76 3.392 143.76 4.112C143.76 4.768 143.96 5.312 144.36 5.744C144.776 6.176 145.464 6.68 146.424 7.256L149.376 9.008C150.464 9.664 151.232 10.272 151.68 10.832C152.128 11.392 152.352 12.104 152.352 12.968C152.352 14.312 151.904 15.392 151.008 16.208C150.112 17.008 148.896 17.408 147.36 17.408ZM155.452 4.04C155.452 3.224 155.34 2.624 155.116 2.24C154.892 1.84 154.444 1.64 153.772 1.64H153.292V1.16H163.516C164.876 1.16 165.556 1.8 165.556 3.08V4.88H165.076C165.076 3.04 164.076 2.12 162.076 2.12H157.612V8.36H164.092V9.32H157.612V16.04H161.812C162.916 16.04 163.78 15.84 164.404 15.44C165.028 15.04 165.524 14.36 165.892 13.4L166.372 13.52L165.532 15.8C165.244 16.6 164.644 17 163.732 17H155.452V4.04ZM186.769 18.08C185.617 18.08 184.721 17.904 184.081 17.552C183.441 17.2 182.985 16.656 182.713 15.92C182.457 15.168 182.329 14.168 182.329 12.92V3.68L176.329 17H175.849L169.609 3.44V17H168.649V1.16H170.929L176.689 13.64L182.329 1.16H184.489V12.92C184.489 14.408 184.673 15.56 185.041 16.376C185.425 17.192 186.001 17.6 186.769 17.6V18.08ZM198.924 17.408C198.044 17.408 197.18 17.288 196.332 17.048C195.484 16.808 194.788 16.464 194.244 16.016C193.716 15.568 193.452 15.056 193.452 14.48V11.912H193.884C194.156 13.512 194.684 14.672 195.468 15.392C196.252 16.096 197.332 16.448 198.708 16.448C199.572 16.448 200.308 16.232 200.916 15.8C201.54 15.368 201.852 14.768 201.852 14C201.852 13.328 201.644 12.744 201.228 12.248C200.812 11.752 200.14 11.232 199.212 10.688L196.26 8.936C195.236 8.328 194.508 7.712 194.076 7.088C193.66 6.464 193.452 5.704 193.452 4.808C193.452 3.576 193.876 2.592 194.724 1.856C195.588 1.104 196.716 0.727999 198.108 0.727999C198.924 0.727999 199.732 0.847999 200.532 1.088C201.332 1.312 201.988 1.648 202.5 2.096C203.028 2.528 203.292 3.032 203.292 3.608V6.176H202.86C202.588 4.576 202.068 3.432 201.3 2.744C200.548 2.04 199.484 1.688 198.108 1.688C197.372 1.688 196.724 1.912 196.164 2.36C195.604 2.808 195.324 3.392 195.324 4.112C195.324 4.768 195.524 5.312 195.924 5.744C196.34 6.176 197.028 6.68 197.988 7.256L200.94 9.008C202.028 9.664 202.796 10.272 203.244 10.832C203.692 11.392 203.916 12.104 203.916 12.968C203.916 14.312 203.468 15.392 202.572 16.208C201.676 17.008 200.46 17.408 198.924 17.408ZM212.969 17.24C211.433 17.24 210.217 16.984 209.321 16.472C208.425 15.944 207.785 15.168 207.401 14.144C207.033 13.12 206.849 11.792 206.849 10.16V4.04C206.849 3.224 206.737 2.624 206.513 2.24C206.289 1.84 205.841 1.64 205.169 1.64H204.689V1.16H206.849C207.441 1.16 207.881 1.24 208.169 1.4C208.473 1.544 208.689 1.816 208.817 2.216C208.945 2.616 209.009 3.224 209.009 4.04V10.88C209.009 12.656 209.337 14 209.993 14.912C210.649 15.824 211.737 16.28 213.257 16.28C214.473 16.28 215.433 16.064 216.137 15.632C216.857 15.2 217.369 14.544 217.673 13.664C217.977 12.784 218.129 11.616 218.129 10.16V1.16H219.089V10.16C219.089 11.824 218.913 13.168 218.561 14.192C218.209 15.2 217.585 15.96 216.689 16.472C215.809 16.984 214.569 17.24 212.969 17.24ZM233.573 17.24C232.725 17.24 231.981 16.992 231.341 16.496C230.717 15.984 230.021 15.072 229.253 13.76L226.853 9.68H225.173V17H223.013V4.04C223.013 3.224 222.901 2.624 222.677 2.24C222.453 1.84 222.005 1.64 221.333 1.64H220.853V1.16H227.093C228.613 1.16 229.989 1.464 231.221 2.072C232.469 2.664 233.093 3.8 233.093 5.48C233.093 7.608 231.813 8.968 229.253 9.56L231.773 13.76C232.365 14.752 232.893 15.448 233.357 15.848C233.837 16.232 234.389 16.456 235.013 16.52V17C234.869 17.064 234.661 17.12 234.389 17.168C234.133 17.216 233.861 17.24 233.573 17.24ZM226.973 8.84C227.469 8.84 228.005 8.72 228.581 8.48C229.173 8.24 229.669 7.864 230.069 7.352C230.485 6.84 230.693 6.216 230.693 5.48C230.693 4.696 230.485 4.048 230.069 3.536C229.669 3.008 229.173 2.624 228.581 2.384C228.005 2.128 227.469 2 226.973 2C226.413 2 225.813 2.08 225.173 2.24V8.6C225.813 8.76 226.413 8.84 226.973 8.84ZM236.807 4.04C236.807 3.224 236.695 2.624 236.471 2.24C236.247 1.84 235.799 1.64 235.127 1.64H234.647V1.16H240.887C242.423 1.16 243.807 1.488 245.039 2.144C246.271 2.8 246.887 4.072 246.887 5.96C246.887 7.208 246.567 8.168 245.927 8.84C245.287 9.512 244.567 9.96 243.767 10.184C242.983 10.408 242.263 10.52 241.607 10.52H238.967V17H236.807V4.04ZM240.767 9.68C241.279 9.68 241.823 9.552 242.399 9.296C242.975 9.024 243.463 8.6 243.863 8.024C244.279 7.448 244.487 6.72 244.487 5.84C244.487 4.96 244.279 4.232 243.863 3.656C243.463 3.08 242.975 2.664 242.399 2.408C241.823 2.136 241.279 2 240.767 2C240.207 2 239.607 2.08 238.967 2.24V9.44C239.607 9.6 240.207 9.68 240.767 9.68ZM260.129 17.24C259.281 17.24 258.537 16.992 257.897 16.496C257.273 15.984 256.577 15.072 255.809 13.76L253.409 9.68H251.729V17H249.569V4.04C249.569 3.224 249.457 2.624 249.233 2.24C249.009 1.84 248.561 1.64 247.889 1.64H247.409V1.16H253.649C255.169 1.16 256.545 1.464 257.777 2.072C259.025 2.664 259.649 3.8 259.649 5.48C259.649 7.608 258.369 8.968 255.809 9.56L258.329 13.76C258.921 14.752 259.449 15.448 259.913 15.848C260.393 16.232 260.945 16.456 261.569 16.52V17C261.425 17.064 261.217 17.12 260.945 17.168C260.689 17.216 260.417 17.24 260.129 17.24ZM253.529 8.84C254.025 8.84 254.561 8.72 255.137 8.48C255.729 8.24 256.225 7.864 256.625 7.352C257.041 6.84 257.249 6.216 257.249 5.48C257.249 4.696 257.041 4.048 256.625 3.536C256.225 3.008 255.729 2.624 255.137 2.384C254.561 2.128 254.025 2 253.529 2C252.969 2 252.369 2.08 251.729 2.24V8.6C252.369 8.76 252.969 8.84 253.529 8.84ZM263.362 4.04C263.362 3.224 263.25 2.624 263.026 2.24C262.802 1.84 262.354 1.64 261.682 1.64H261.202V1.16H271.426C272.786 1.16 273.466 1.8 273.466 3.08V4.88H272.986C272.986 3.04 271.986 2.12 269.986 2.12H265.522V8.36H272.002V9.32H265.522V16.04H269.722C270.826 16.04 271.69 15.84 272.314 15.44C272.938 15.04 273.434 14.36 273.802 13.4L274.282 13.52L273.442 15.8C273.154 16.6 272.554 17 271.642 17H263.362V4.04ZM281.263 17.408C280.383 17.408 279.519 17.288 278.671 17.048C277.823 16.808 277.127 16.464 276.583 16.016C276.055 15.568 275.791 15.056 275.791 14.48V11.912H276.223C276.495 13.512 277.023 14.672 277.807 15.392C278.591 16.096 279.671 16.448 281.047 16.448C281.911 16.448 282.647 16.232 283.255 15.8C283.879 15.368 284.191 14.768 284.191 14C284.191 13.328 283.983 12.744 283.567 12.248C283.151 11.752 282.479 11.232 281.551 10.688L278.599 8.936C277.575 8.328 276.847 7.712 276.415 7.088C275.999 6.464 275.791 5.704 275.791 4.808C275.791 3.576 276.215 2.592 277.063 1.856C277.927 1.104 279.055 0.727999 280.447 0.727999C281.263 0.727999 282.071 0.847999 282.871 1.088C283.671 1.312 284.327 1.648 284.839 2.096C285.367 2.528 285.631 3.032 285.631 3.608V6.176H285.199C284.927 4.576 284.407 3.432 283.639 2.744C282.887 2.04 281.823 1.688 280.447 1.688C279.711 1.688 279.063 1.912 278.503 2.36C277.943 2.808 277.663 3.392 277.663 4.112C277.663 4.768 277.863 5.312 278.263 5.744C278.679 6.176 279.367 6.68 280.327 7.256L283.279 9.008C284.367 9.664 285.135 10.272 285.583 10.832C286.031 11.392 286.255 12.104 286.255 12.968C286.255 14.312 285.807 15.392 284.911 16.208C284.015 17.008 282.799 17.408 281.263 17.408ZM301.74 17.12C300.972 17.12 300.212 16.912 299.46 16.496C298.708 16.064 298.108 15.232 297.66 14L297.06 12.44H290.34L288.42 17H287.34L294.06 1.16H294.78L300.06 14C300.46 14.928 300.836 15.568 301.188 15.92C301.54 16.256 302.044 16.456 302.7 16.52V17C302.412 17.08 302.092 17.12 301.74 17.12ZM296.58 11.48L293.7 4.52L290.7 11.48H296.58Z" fill="white"/>
<path d="M140.592 19.4H186.636V20.6H140.592V19.4Z" fill="white"/>
</svg>
